<svg xmlns="http://www.w3.org/2000/svg" width="500" height="500" viewBox="0 0 500 500"><g transform="translate(0,92.67099758082486)translate(179.14062500000682,171.5865022590426)rotate(0)translate(-179.14062500000682,-171.5865022590426) scale(2.1598561025307967,2.1598561025307967)" opacity="1"><defs class="defs"><linearGradient id="linearGradient8496485b77fb7a6ce0b546cb76cbb4a5" class="linearGradient1" gradientTransform="translate(0.5,0.5) rotate(270) translate(-0.5,-0.5)" x1="50%" y1="0%" x2="50%" y2="100%"><stop id="stop1" offset="0%" class="linearGradientColor1" stop-color="#00a961"/><stop id="stop2" offset="100%" class="linearGradientColor2" stop-color="#a2cc58"/></linearGradient></defs><path fill="url(#linearGradient8496485b77fb7a6ce0b546cb76cbb4a5)" d="M29.675,119.259L7.182,96.768c-9.573-9.578-9.578-25.102,0-34.68l17.014-17.013&#10;&#9;c4.425,0.721,10.038,1.677,16.437,2.861c3.976,0.639,8.233,1.66,12.707,2.587c4.489,0.885,9.139,2.091,13.915,3.352&#10;&#9;c4.758,1.277,9.658,2.594,14.471,4.333c4.828,1.66,9.693,3.401,14.347,5.499c1.238,0.502,2.452,1.043,3.649,1.604&#10;&#9;c-1.276,1.208-2.641,2.49-4.092,3.839c-4.234,3.863-9.168,8.213-14.543,12.69c-5.396,4.454-11.258,9.012-17.235,13.441&#10;&#9;c-3.017,2.204-6.034,4.397-8.999,6.561c-3.029,2.131-6.007,4.23-8.892,6.258c-5.915,4.054-11.438,7.837-16.167,11.078&#10;&#9;C29.753,119.206,29.716,119.232,29.675,119.259z M108.246,122.275c0.014-1.899-0.876-3.271-1.08-4.957&#10;&#9;c-0.795-1.356-1.13-2.937-2.184-4.174c-0.714-1.444-2.055-2.562-3.108-3.951c-1.396-1.117-2.614-2.49-4.171-3.504&#10;&#9;c-1.416-1.165-2.984-2.139-4.422-3.161c-2.939-1.805-5.632-3.396-7.607-4.546c-0.878,0.887-1.771,1.765-2.704,2.614&#10;&#9;c-2.94,2.747-6.13,5.316-9.366,7.798c-6.541,4.876-13.597,9.011-20.492,12.195c-3.385,1.708-6.828,3.018-10.089,4.198&#10;&#9;c-1.995,0.767-3.948,1.408-5.848,1.969l0.132,0.131c-4.885,1.549-14.269,3.964-21.677,2.502c3.535,0.768,15.272,3.088,27.06,2.881&#10;&#9;l19.4,19.398c9.574,9.578,25.098,9.578,34.672,0l11.287-11.285c0.023-0.324,0.05-0.647,0.055-0.981&#10;&#9;c0.067-1.82,0.147-3.736,0.38-5.675c0.382-1.948-0.045-3.896,0.127-5.843C108.865,125.867,108.322,124.104,108.246,122.275z&#10;&#9; M122.398,43.897c7.344,0,13.297-5.961,13.297-13.305c0-7.342-5.953-13.296-13.297-13.296c-7.351,0-13.301,5.954-13.301,13.296&#10;&#9;C109.098,37.936,115.048,43.897,122.398,43.897z M30.083,40.182c3.307-0.42,7.016-0.774,11.112-0.961&#10;&#9;c4.178-0.192,8.735-0.311,13.553-0.119c4.816,0.191,9.896,0.646,15.172,1.213c5.225,0.878,10.644,1.787,16.095,3.176&#10;&#9;c2.758,0.551,5.468,1.437,8.181,2.338c2.723,0.879,5.477,1.716,8.118,2.93c5.399,2.067,10.559,4.821,15.575,7.623&#10;&#9;c4.845,3.081,9.865,6.8,12.758,8.691c3.297,2.107,6.617,3.104,9.586,3.042c3.069,0.127,6.146-1.262,9.063-3.082&#10;&#9;c1.056-0.703,2.04-1.472,2.992-2.262c-0.209-0.226-0.397-0.463-0.617-0.683l-16.885-16.883c-3.345,2.843-7.665,4.567-12.388,4.567&#10;&#9;c-10.571,0-19.176-8.604-19.176-19.18c0-4.719,1.725-9.04,4.565-12.384L96.762,7.183c-9.574-9.578-25.094-9.578-34.672,0&#10;&#9;L33.863,35.408c-12.114,2.976-22.719,7.659-22.719,7.659C20.465,41.51,27.003,40.592,30.083,40.182z M165.882,56.846&#10;&#9;c-1.738,5.592-5.655,11.33-8.322,14.816c-0.026-0.079-0.046-0.16-0.073-0.238c-0.362,0.468-0.739,0.937-1.135,1.407&#10;&#9;c-3.105,3.599-7.882,7.135-14.164,8.556c-6.324,1.46-13.093-0.096-18.768-2.73c-3.42-1.596-4.921-2.809-7.543-4.373&#10;&#9;c-2.047-1.286-4.118-2.594-6.209-3.903c-1.203-0.62-2.405-1.251-3.611-1.883c-0.814,1.977-1.791,4.095-2.986,6.305&#10;&#9;c-1.417,2.737-3.096,5.626-5.127,8.499c-2.027,2.866-4.162,5.955-6.776,8.756c-0.556,0.625-1.12,1.254-1.689,1.885&#10;&#9;c1.818-0.292,3.941-0.474,6.351-0.4c4.19,0.096,9.211,1.102,14.358,3.832c2.442,1.62,5.133,3.248,7.168,5.89&#10;&#9;c2.385,2.307,3.702,5.5,5.187,8.517c0.668,3.145,1.86,6.488,1.533,9.498c-0.025,0.967-0.061,1.93-0.116,2.881&#10;&#9;c-0.799,5.719-3.444,23.581-6.564,33.083c0,0,11.136-19.617,11.708-37.908l22.569-22.567c5.667-5.668,7.952-13.412,6.905-20.778&#10;&#9;C162.229,70.223,164.72,61.525,165.882,56.846z" class="color c1"/></g><g transform="translate(364.84375,125.03006577152581)translate(67.71258746819964,65.29428077290672)rotate(0)translate(-67.71258746819964,-65.29428077290672) scale(2.4229362341688456,2.4229362341688456)" opacity="1"><defs class="defs"/><path fill="#a2cc58" d="M55.483,40.099c-14.694,0.646-25.229-9.881-25.229-9.881l-4.578,14.128c0,0,17.771,11.907,25.029,9.402&#10;&#9;C57.965,51.241,55.483,40.099,55.483,40.099z M40.786,47.027c-1.554,0-2.811-1.261-2.811-2.81c0-1.548,1.257-2.809,2.811-2.809&#10;&#9;c1.552,0,2.809,1.261,2.809,2.809C43.595,45.766,42.338,47.027,40.786,47.027z M15.157,0L1.214,1.445c0,0-5.328,10.694,6.341,31.144&#10;&#9;l12.814-3.465C20.369,29.124,8.512,8.899,15.157,0z M8.221,19.108c-1.551,0-2.809-1.261-2.809-2.809s1.258-2.811,2.809-2.811&#10;&#9;c1.553,0,2.811,1.262,2.811,2.811S9.773,19.108,8.221,19.108z M30.957,24.655c0,0,4.553-3.999,1.006-13.72l-6.945,2.921&#10;&#9;c0,0,2.73,3.839,0.452,8.955L30.957,24.655z M29.731,16.09c0.942,0,1.708,0.767,1.708,1.709s-0.766,1.708-1.708,1.708&#10;&#9;c-0.941,0-1.708-0.766-1.708-1.708S28.79,16.09,29.731,16.09z" class="color c1"/></g></svg>