<svg xmlns="http://www.w3.org/2000/svg" width="500" height="500" viewBox="0 0 500 500"><g transform="translate(-3.125,356.67765112187885)translate(251.61035156249605,39.62992443906044)rotate(0)translate(-251.61035156249605,-39.62992443906044)" opacity="1"><path transform="translate(7,61.923931290150335)rotate(0)" d="M10.49-44.02L17.87-12.09L25.28-44.02L35.19-44.02L22.50 0L13.24 0L0.63-44.02L10.49-44.02ZM70.33-25.58L70.33-18.05L70.33-18.05Q70.33-9.19 66.14-4.29L66.14-4.29L66.14-4.29Q61.95 0.60 54.51 0.60L54.51 0.60L54.51 0.60Q47.11 0.60 42.87-4.25L42.87-4.25L42.87-4.25Q38.64-9.10 38.58-17.84L38.58-17.84L38.58-25.37L38.58-25.37Q38.58-34.44 42.78-39.53L42.78-39.53L42.78-39.53Q46.99-44.63 54.45-44.63L54.45-44.63L54.45-44.63Q61.80-44.63 66.03-39.62L66.03-39.62L66.03-39.62Q70.27-34.62 70.33-25.58L70.33-25.58ZM61.41-17.78L61.41-25.43L61.41-25.43Q61.41-31.38 59.71-34.29L59.71-34.29L59.71-34.29Q58.02-37.19 54.45-37.19L54.45-37.19L54.45-37.19Q50.92-37.19 49.22-34.39L49.22-34.39L49.22-34.39Q47.53-31.60 47.47-25.88L47.47-25.88L47.47-18.05L47.47-18.05Q47.47-12.28 49.19-9.54L49.19-9.54L49.19-9.54Q50.92-6.80 54.51-6.80L54.51-6.80L54.51-6.80Q57.99-6.80 59.68-9.48L59.68-9.48L59.68-9.48Q61.38-12.15 61.41-17.78L61.41-17.78ZM83.33-44.02L89.98-24.25L96.60-44.02L106.28-44.02L94.49-15.96L94.49 0L85.48 0L85.48-15.96L73.65-44.02L83.33-44.02ZM133.67 0L131.31-9.01L119.19-9.01L116.83 0L107.43 0L121.18-44.02L129.32-44.02L143.16 0L133.67 0ZM125.23-32.11L121.12-16.42L129.35-16.42L125.23-32.11ZM177.21-23.16L177.21-4.99L177.21-4.99Q174.64-2.21 170.90-0.80L170.90-0.80L170.90-0.80Q167.17 0.60 162.73 0.60L162.73 0.60L162.73 0.60Q155.14 0.60 150.93-4.10L150.93-4.10L150.93-4.10Q146.73-8.80 146.61-17.78L146.61-17.78L146.61-25.70L146.61-25.70Q146.61-34.80 150.59-39.71L150.59-39.71L150.59-39.71Q154.56-44.63 162.18-44.63L162.18-44.63L162.18-44.63Q169.35-44.63 172.99-41.09L172.99-41.09L172.99-41.09Q176.63-37.55 177.21-29.99L177.21-29.99L168.56-29.99L168.56-29.99Q168.20-34.20 166.81-35.72L166.81-35.72L166.81-35.72Q165.42-37.25 162.45-37.25L162.45-37.25L162.45-37.25Q158.86-37.25 157.22-34.62L157.22-34.62L157.22-34.62Q155.59-31.99 155.53-26.24L155.53-26.24L155.53-18.26L155.53-18.26Q155.53-12.25 157.33-9.51L157.33-9.51L157.33-9.51Q159.13-6.77 163.24-6.77L163.24-6.77L163.24-6.77Q165.87-6.77 167.50-7.83L167.50-7.83L168.29-8.38L168.29-16.45L162.06-16.45L162.06-23.16L177.21-23.16ZM206.23-26.21L206.23-19.05L192.39-19.05L192.39-7.38L208.77-7.38L208.77 0L183.50 0L183.50-44.02L208.71-44.02L208.71-36.61L192.39-36.61L192.39-26.21L206.23-26.21ZM242.73 0L228.16 0L228.16-44.02L241.76-44.02L241.76-44.02Q248.65-44.02 252.24-40.95L252.24-40.95L252.24-40.95Q255.82-37.88 255.82-31.96L255.82-31.96L255.82-31.96Q255.82-28.60 254.34-26.18L254.34-26.18L254.34-26.18Q252.86-23.76 250.29-22.65L250.29-22.65L250.29-22.65Q253.25-21.80 254.85-19.24L254.85-19.24L254.85-19.24Q256.46-16.69 256.46-12.94L256.46-12.94L256.46-12.94Q256.46-6.53 252.93-3.27L252.93-3.27L252.93-3.27Q249.41 0 242.73 0L242.73 0ZM243.30-19.14L237.04-19.14L237.04-7.38L242.73-7.38L242.73-7.38Q245.12-7.38 246.36-8.86L246.36-8.86L246.36-8.86Q247.60-10.34 247.60-13.06L247.60-13.06L247.60-13.06Q247.60-18.99 243.30-19.14L243.30-19.14ZM237.04-36.61L237.04-25.61L241.67-25.61L241.67-25.61Q246.90-25.61 246.90-31.02L246.90-31.02L246.90-31.02Q246.90-34.01 245.69-35.31L245.69-35.31L245.69-35.31Q244.48-36.61 241.76-36.61L241.76-36.61L237.04-36.61ZM282.64-44.02L291.53-44.02L291.53-13.55L291.53-13.55Q291.47-6.68 287.75-3.04L287.75-3.04L287.75-3.04Q284.03 0.60 277.08 0.60L277.08 0.60L277.08 0.60Q270.00 0.60 266.27-3.08L266.27-3.08L266.27-3.08Q262.53-6.77 262.53-13.76L262.53-13.76L262.53-44.02L271.48-44.02L271.48-13.73L271.48-13.73Q271.48-9.98 272.69-8.38L272.69-8.38L272.69-8.38Q273.90-6.77 277.08-6.77L277.08-6.77L277.08-6.77Q280.25-6.77 281.43-8.36L281.43-8.36L281.43-8.36Q282.61-9.95 282.64-13.58L282.64-13.58L282.64-44.02ZM309.67 0L298.27 0L298.27-44.02L309.91-44.02L309.91-44.02Q317.62-44.02 322.20-39.12L322.20-39.12L322.20-39.12Q326.78-34.23 326.87-25.70L326.87-25.70L326.87-18.56L326.87-18.56Q326.87-9.89 322.29-4.94L322.29-4.94L322.29-4.94Q317.71 0 309.67 0L309.67 0ZM310.39-36.61L307.16-36.61L307.16-7.38L309.82-7.38L309.82-7.38Q314.27-7.38 316.08-9.72L316.08-9.72L316.08-9.72Q317.89-12.06 317.98-17.81L317.98-17.81L317.98-25.46L317.98-25.46Q317.98-31.63 316.26-34.06L316.26-34.06L316.26-34.06Q314.54-36.49 310.39-36.61L310.39-36.61ZM363.19-23.16L363.19-4.99L363.19-4.99Q360.62-2.21 356.88-0.80L356.88-0.80L356.88-0.80Q353.15 0.60 348.70 0.60L348.70 0.60L348.70 0.60Q341.11 0.60 336.91-4.10L336.91-4.10L336.91-4.10Q332.71-8.80 332.59-17.78L332.59-17.78L332.59-25.70L332.59-25.70Q332.59-34.80 336.56-39.71L336.56-39.71L336.56-39.71Q340.54-44.63 348.16-44.63L348.16-44.63L348.16-44.63Q355.32-44.63 358.97-41.09L358.97-41.09L358.97-41.09Q362.61-37.55 363.19-29.99L363.19-29.99L354.54-29.99L354.54-29.99Q354.18-34.20 352.78-35.72L352.78-35.72L352.78-35.72Q351.39-37.25 348.43-37.25L348.43-37.25L348.43-37.25Q344.83-37.25 343.20-34.62L343.20-34.62L343.20-34.62Q341.57-31.99 341.51-26.24L341.51-26.24L341.51-18.26L341.51-18.26Q341.51-12.25 343.31-9.51L343.31-9.51L343.31-9.51Q345.10-6.77 349.22-6.77L349.22-6.77L349.22-6.77Q351.85-6.77 353.48-7.83L353.48-7.83L354.27-8.38L354.27-16.45L348.04-16.45L348.04-23.16L363.19-23.16ZM392.21-26.21L392.21-19.05L378.36-19.05L378.36-7.38L394.75-7.38L394.75 0L369.47 0L369.47-44.02L394.69-44.02L394.69-36.61L378.36-36.61L378.36-26.21L392.21-26.21ZM428.37-44.02L428.37-36.61L417.49-36.61L417.49 0L408.57 0L408.57-36.61L397.87-36.61L397.87-44.02L428.37-44.02ZM456.22-26.21L456.22-19.05L442.37-19.05L442.37-7.38L458.76-7.38L458.76 0L433.48 0L433.48-44.02L458.70-44.02L458.70-36.61L442.37-36.61L442.37-26.21L456.22-26.21ZM483.82 0L477.20-16.09L472.79-16.09L472.79 0L463.90 0L463.90-44.02L478.08-44.02L478.08-44.02Q484.76-44.02 488.40-40.56L488.40-40.56L488.40-40.56Q492.05-37.10 492.05-30.72L492.05-30.72L492.05-30.72Q492.05-21.95 485.67-18.44L485.67-18.44L493.38-0.42L493.38 0L483.82 0ZM472.79-36.61L472.79-23.49L477.84-23.49L477.84-23.49Q480.50-23.49 481.83-25.26L481.83-25.26L481.83-25.26Q483.16-27.03 483.16-29.99L483.16-29.99L483.16-29.99Q483.16-36.61 477.99-36.61L477.99-36.61L472.79-36.61Z" fill="#282828"/></g><g transform="translate(0,429.8212126600294)translate(250.5892594817401,30.08052142547554)rotate(0)translate(-250.5892594817401,-30.08052142547554)" opacity="1"><path transform="translate(8,23.949758366962115)rotate(0)" d="M6.76 0L1.81 0L1.81-16.80L6.60-16.80L6.60-16.80Q8.90-16.80 10.06-15.69L10.06-15.69L10.06-15.69Q11.22-14.57 11.22-12.33L11.22-12.33L11.22-12.33Q11.22-11.15 10.63-10.25L10.63-10.25L10.63-10.25Q10.04-9.35 9.04-8.85L9.04-8.85L9.04-8.85Q10.19-8.51 10.87-7.43L10.87-7.43L10.87-7.43Q11.54-6.36 11.54-4.85L11.54-4.85L11.54-4.85Q11.54-2.59 10.30-1.29L10.30-1.29L10.30-1.29Q9.06 0 6.76 0L6.76 0ZM6.86-7.86L3.92-7.86L3.92-1.81L6.81-1.81L6.81-1.81Q8.01-1.81 8.71-2.60L8.71-2.60L8.71-2.60Q9.42-3.39 9.42-4.82L9.42-4.82L9.42-4.82Q9.42-7.86 6.86-7.86L6.86-7.86ZM3.92-14.98L3.92-9.64L6.64-9.64L6.64-9.64Q7.73-9.64 8.41-10.38L8.41-10.38L8.41-10.38Q9.08-11.11 9.08-12.34L9.08-12.34L9.08-12.34Q9.08-13.72 8.47-14.35L8.47-14.35L8.47-14.35Q7.86-14.98 6.60-14.98L6.60-14.98L3.92-14.98ZM27.33-16.80L29.45-16.80L29.45-4.86L29.45-4.86Q29.43-2.47 28.06-1.12L28.06-1.12L28.06-1.12Q26.70 0.23 24.27 0.23L24.27 0.23L24.27 0.23Q21.77 0.23 20.46-1.09L20.46-1.09L20.46-1.09Q19.14-2.41 19.12-4.86L19.12-4.86L19.12-16.80L21.22-16.80L21.22-4.94L21.22-4.94Q21.22-3.24 21.94-2.41L21.94-2.41L21.94-2.41Q22.66-1.57 24.27-1.57L24.27-1.57L24.27-1.57Q25.88-1.57 26.60-2.41L26.60-2.41L26.60-2.41Q27.33-3.24 27.33-4.94L27.33-4.94L27.33-16.80ZM41.19 0L37.43 0L37.43-16.80L41.44-16.80L41.44-16.80Q44.38-16.80 46.01-14.96L46.01-14.96L46.01-14.96Q47.63-13.12 47.63-9.79L47.63-9.79L47.63-6.97L47.63-6.97Q47.63-3.64 45.98-1.82L45.98-1.82L45.98-1.82Q44.33 0 41.19 0L41.19 0ZM41.44-14.98L39.54-14.98L39.54-1.81L41.24-1.81L41.24-1.81Q43.47-1.81 44.50-3.09L44.50-3.09L44.50-3.09Q45.52-4.36 45.55-6.87L45.55-6.87L45.55-9.85L45.55-9.85Q45.55-12.50 44.52-13.74L44.52-13.74L44.52-13.74Q43.50-14.98 41.44-14.98L41.44-14.98ZM66.17-8.37L66.17-2.09L65.80-1.63L65.80-1.63Q64.20 0.23 61.13 0.23L61.13 0.23L61.13 0.23Q58.41 0.23 56.86-1.58L56.86-1.58L56.86-1.58Q55.31-3.38 55.27-6.68L55.27-6.68L55.27-9.98L55.27-9.98Q55.27-13.52 56.68-15.28L56.68-15.28L56.68-15.28Q58.10-17.04 60.91-17.04L60.91-17.04L60.91-17.04Q63.32-17.04 64.67-15.70L64.67-15.70L64.67-15.70Q66.03-14.36 66.17-11.88L66.17-11.88L64.05-11.88L64.05-11.88Q63.93-13.45 63.18-14.33L63.18-14.33L63.18-14.33Q62.44-15.21 60.93-15.21L60.93-15.21L60.93-15.21Q59.11-15.21 58.27-14.03L58.27-14.03L58.27-14.03Q57.43-12.85 57.39-10.25L57.39-10.25L57.39-6.82L57.39-6.82Q57.39-4.28 58.36-2.93L58.36-2.93L58.36-2.93Q59.33-1.57 61.15-1.57L61.15-1.57L61.15-1.57Q62.85-1.57 63.74-2.40L63.74-2.40L64.05-2.69L64.05-6.57L60.98-6.57L60.98-8.37L66.17-8.37ZM82.40-9.58L82.40-7.77L76.46-7.77L76.46-1.81L83.38-1.81L83.38 0L74.34 0L74.34-16.80L83.27-16.80L83.27-14.98L76.46-14.98L76.46-9.58L82.40-9.58ZM100.63-16.80L100.63-14.98L96.21-14.98L96.21 0L94.10 0L94.10-14.98L89.69-14.98L89.69-16.80L100.63-16.80ZM125.32-4.25L125.32-4.25L125.32-4.25Q125.32-5.51 124.64-6.17L124.64-6.17L124.64-6.17Q123.96-6.84 122.18-7.48L122.18-7.48L122.18-7.48Q120.41-8.11 119.46-8.81L119.46-8.81L119.46-8.81Q118.52-9.51 118.06-10.40L118.06-10.40L118.06-10.40Q117.59-11.30 117.59-12.45L117.59-12.45L117.59-12.45Q117.59-14.45 118.92-15.74L118.92-15.74L118.92-15.74Q120.26-17.04 122.41-17.04L122.41-17.04L122.41-17.04Q123.89-17.04 125.04-16.37L125.04-16.37L125.04-16.37Q126.20-15.71 126.82-14.53L126.82-14.53L126.82-14.53Q127.45-13.35 127.45-11.95L127.45-11.95L125.32-11.95L125.32-11.95Q125.32-13.50 124.57-14.36L124.57-14.36L124.57-14.36Q123.82-15.21 122.41-15.21L122.41-15.21L122.41-15.21Q121.13-15.21 120.43-14.50L120.43-14.50L120.43-14.50Q119.72-13.78 119.72-12.49L119.72-12.49L119.72-12.49Q119.72-11.43 120.49-10.71L120.49-10.71L120.49-10.71Q121.25-10.00 122.84-9.43L122.84-9.43L122.84-9.43Q125.32-8.61 126.39-7.41L126.39-7.41L126.39-7.41Q127.46-6.21 127.46-4.27L127.46-4.27L127.46-4.27Q127.46-2.23 126.13-1.00L126.13-1.00L126.13-1.00Q124.80 0.23 122.52 0.23L122.52 0.23L122.52 0.23Q121.05 0.23 119.81-0.41L119.81-0.41L119.81-0.41Q118.57-1.05 117.86-2.21L117.86-2.21L117.86-2.21Q117.15-3.37 117.15-4.87L117.15-4.87L119.27-4.87L119.27-4.87Q119.27-3.31 120.15-2.45L120.15-2.45L120.15-2.45Q121.02-1.58 122.52-1.58L122.52-1.58L122.52-1.58Q123.91-1.58 124.62-2.30L124.62-2.30L124.62-2.30Q125.32-3.01 125.32-4.25ZM134.95-16.80L137.68-16.80L142.06-3.09L146.45-16.80L149.17-16.80L149.17 0L147.06 0L147.06-6.54L147.26-13.10L142.86 0L141.24 0L136.87-13.05L137.07-6.54L137.07 0L134.95 0L134.95-16.80ZM166.70 0L165.37-4.39L159.70-4.39L158.39 0L156.22 0L161.63-16.80L163.45-16.80L168.87 0L166.70 0ZM162.53-13.85L160.25-6.21L164.83-6.21L162.53-13.85ZM183.95 0L180.96-6.80L178.01-6.80L178.01 0L175.88 0L175.88-16.80L180.59-16.80L180.59-16.80Q183.06-16.80 184.33-15.52L184.33-15.52L184.33-15.52Q185.60-14.23 185.60-11.75L185.60-11.75L185.60-11.75Q185.60-10.19 184.91-9.03L184.91-9.03L184.91-9.03Q184.23-7.87 182.97-7.28L182.97-7.28L186.22-0.14L186.22 0L183.95 0ZM178.01-14.98L178.01-8.61L180.57-8.61L180.57-8.61Q181.90-8.61 182.69-9.46L182.69-9.46L182.69-9.46Q183.48-10.32 183.48-11.75L183.48-11.75L183.48-11.75Q183.48-14.98 180.55-14.98L180.55-14.98L178.01-14.98ZM202.98-16.80L202.98-14.98L198.56-14.98L198.56 0L196.45 0L196.45-14.98L192.04-14.98L192.04-16.80L202.98-16.80ZM218.24-9.58L218.24-7.77L212.30-7.77L212.30-1.81L219.22-1.81L219.22 0L210.19 0L210.19-16.80L219.11-16.80L219.11-14.98L212.30-14.98L212.30-9.58L218.24-9.58ZM234.72 0L231.73-6.80L228.78-6.80L228.78 0L226.65 0L226.65-16.80L231.36-16.80L231.36-16.80Q233.83-16.80 235.10-15.52L235.10-15.52L235.10-15.52Q236.37-14.23 236.37-11.75L236.37-11.75L236.37-11.75Q236.37-10.19 235.68-9.03L235.68-9.03L235.68-9.03Q235.00-7.87 233.74-7.28L233.74-7.28L236.99-0.14L236.99 0L234.72 0ZM228.78-14.98L228.78-8.61L231.34-8.61L231.34-8.61Q232.67-8.61 233.46-9.46L233.46-9.46L233.46-9.46Q234.25-10.32 234.25-11.75L234.25-11.75L234.25-11.75Q234.25-14.98 231.32-14.98L231.32-14.98L228.78-14.98ZM243.78-1.12L243.78-1.12L243.78-1.12Q243.78-1.67 244.11-2.04L244.11-2.04L244.11-2.04Q244.43-2.41 245.09-2.41L245.09-2.41L245.09-2.41Q245.75-2.41 246.09-2.04L246.09-2.04L246.09-2.04Q246.43-1.67 246.43-1.12L246.43-1.12L246.43-1.12Q246.43-0.59 246.09-0.23L246.09-0.23L246.09-0.23Q245.75 0.13 245.09 0.13L245.09 0.13L245.09 0.13Q244.43 0.13 244.11-0.23L244.11-0.23L244.11-0.23Q243.78-0.59 243.78-1.12ZM269.97 0L265.02 0L265.02-16.80L269.81-16.80L269.81-16.80Q272.10-16.80 273.26-15.69L273.26-15.69L273.26-15.69Q274.42-14.57 274.42-12.33L274.42-12.33L274.42-12.33Q274.42-11.15 273.83-10.25L273.83-10.25L273.83-10.25Q273.24-9.35 272.24-8.85L272.24-8.85L272.24-8.85Q273.39-8.51 274.07-7.43L274.07-7.43L274.07-7.43Q274.74-6.36 274.74-4.85L274.74-4.85L274.74-4.85Q274.74-2.59 273.50-1.29L273.50-1.29L273.50-1.29Q272.26 0 269.97 0L269.97 0ZM270.06-7.86L267.13-7.86L267.13-1.81L270.01-1.81L270.01-1.81Q271.21-1.81 271.92-2.60L271.92-2.60L271.92-2.60Q272.62-3.39 272.62-4.82L272.62-4.82L272.62-4.82Q272.62-7.86 270.06-7.86L270.06-7.86ZM267.13-14.98L267.13-9.64L269.84-9.64L269.84-9.64Q270.94-9.64 271.61-10.38L271.61-10.38L271.61-10.38Q272.29-11.11 272.29-12.34L272.29-12.34L272.29-12.34Q272.29-13.72 271.67-14.35L271.67-14.35L271.67-14.35Q271.06-14.98 269.81-14.98L269.81-14.98L267.13-14.98ZM290.53-16.80L292.65-16.80L292.65-4.86L292.65-4.86Q292.63-2.47 291.27-1.12L291.27-1.12L291.27-1.12Q289.91 0.23 287.47 0.23L287.47 0.23L287.47 0.23Q284.98 0.23 283.66-1.09L283.66-1.09L283.66-1.09Q282.35-2.41 282.32-4.86L282.32-4.86L282.32-16.80L284.42-16.80L284.42-4.94L284.42-4.94Q284.42-3.24 285.15-2.41L285.15-2.41L285.15-2.41Q285.87-1.57 287.47-1.57L287.47-1.57L287.47-1.57Q289.09-1.57 289.81-2.41L289.81-2.41L289.81-2.41Q290.53-3.24 290.53-4.94L290.53-4.94L290.53-16.80ZM304.40 0L300.64 0L300.64-16.80L304.64-16.80L304.64-16.80Q307.58-16.80 309.21-14.96L309.21-14.96L309.21-14.96Q310.84-13.12 310.84-9.79L310.84-9.79L310.84-6.97L310.84-6.97Q310.84-3.64 309.19-1.82L309.19-1.82L309.19-1.82Q307.54 0 304.40 0L304.40 0ZM304.64-14.98L302.75-14.98L302.75-1.81L304.44-1.81L304.44-1.81Q306.67-1.81 307.70-3.09L307.70-3.09L307.70-3.09Q308.73-4.36 308.75-6.87L308.75-6.87L308.75-9.85L308.75-9.85Q308.75-12.50 307.73-13.74L307.73-13.74L307.73-13.74Q306.71-14.98 304.64-14.98L304.64-14.98ZM329.37-8.37L329.37-2.09L329.00-1.63L329.00-1.63Q327.41 0.23 324.34 0.23L324.34 0.23L324.34 0.23Q321.61 0.23 320.06-1.58L320.06-1.58L320.06-1.58Q318.51-3.38 318.47-6.68L318.47-6.68L318.47-9.98L318.47-9.98Q318.47-13.52 319.89-15.28L319.89-15.28L319.89-15.28Q321.30-17.04 324.12-17.04L324.12-17.04L324.12-17.04Q326.52-17.04 327.87-15.70L327.87-15.70L327.87-15.70Q329.23-14.36 329.37-11.88L329.37-11.88L327.26-11.88L327.26-11.88Q327.13-13.45 326.39-14.33L326.39-14.33L326.39-14.33Q325.64-15.21 324.13-15.21L324.13-15.21L324.13-15.21Q322.32-15.21 321.47-14.03L321.47-14.03L321.47-14.03Q320.63-12.85 320.60-10.25L320.60-10.25L320.60-6.82L320.60-6.82Q320.60-4.28 321.57-2.93L321.57-2.93L321.57-2.93Q322.54-1.57 324.35-1.57L324.35-1.57L324.35-1.57Q326.06-1.57 326.95-2.40L326.95-2.40L327.26-2.69L327.26-6.57L324.19-6.57L324.19-8.37L329.37-8.37ZM345.60-9.58L345.60-7.77L339.66-7.77L339.66-1.81L346.58-1.81L346.58 0L337.55 0L337.55-16.80L346.47-16.80L346.47-14.98L339.66-14.98L339.66-9.58L345.60-9.58ZM363.84-16.80L363.84-14.98L359.41-14.98L359.41 0L357.30 0L357.30-14.98L352.89-14.98L352.89-16.80L363.84-16.80ZM388.98-9.23L388.98-7.42L383.30-7.42L383.30 0L381.18 0L381.18-16.80L389.93-16.80L389.93-14.98L383.30-14.98L383.30-9.23L388.98-9.23ZM406.43 0L405.11-4.39L399.43-4.39L398.12 0L395.95 0L401.37-16.80L403.18-16.80L408.60 0L406.43 0ZM402.27-13.85L399.98-6.21L404.56-6.21L402.27-13.85ZM422.96-4.25L422.96-4.25L422.96-4.25Q422.96-5.51 422.28-6.17L422.28-6.17L422.28-6.17Q421.59-6.84 419.82-7.48L419.82-7.48L419.82-7.48Q418.04-8.11 417.10-8.81L417.10-8.81L417.10-8.81Q416.16-9.51 415.69-10.40L415.69-10.40L415.69-10.40Q415.22-11.30 415.22-12.45L415.22-12.45L415.22-12.45Q415.22-14.45 416.56-15.74L416.56-15.74L416.56-15.74Q417.89-17.04 420.05-17.04L420.05-17.04L420.05-17.04Q421.53-17.04 422.68-16.37L422.68-16.37L422.68-16.37Q423.83-15.71 424.46-14.53L424.46-14.53L424.46-14.53Q425.08-13.35 425.08-11.95L425.08-11.95L422.96-11.95L422.96-11.95Q422.96-13.50 422.21-14.36L422.21-14.36L422.21-14.36Q421.46-15.21 420.05-15.21L420.05-15.21L420.05-15.21Q418.77-15.21 418.06-14.50L418.06-14.50L418.06-14.50Q417.36-13.78 417.36-12.49L417.36-12.49L417.36-12.49Q417.36-11.43 418.12-10.71L418.12-10.71L418.12-10.71Q418.88-10.00 420.47-9.43L420.47-9.43L420.47-9.43Q422.96-8.61 424.02-7.41L424.02-7.41L424.02-7.41Q425.09-6.21 425.09-4.27L425.09-4.27L425.09-4.27Q425.09-2.23 423.76-1.00L423.76-1.00L423.76-1.00Q422.44 0.23 420.15 0.23L420.15 0.23L420.15 0.23Q418.69 0.23 417.45-0.41L417.45-0.41L417.45-0.41Q416.20-1.05 415.49-2.21L415.49-2.21L415.49-2.21Q414.78-3.37 414.78-4.87L414.78-4.87L416.91-4.87L416.91-4.87Q416.91-3.31 417.78-2.45L417.78-2.45L417.78-2.45Q418.65-1.58 420.15-1.58L420.15-1.58L420.15-1.58Q421.55-1.58 422.25-2.30L422.25-2.30L422.25-2.30Q422.96-3.01 422.96-4.25ZM442.41-16.80L442.41-14.98L437.99-14.98L437.99 0L435.88 0L435.88-14.98L431.47-14.98L431.47-16.80L442.41-16.80ZM457.68-9.58L457.68-7.77L451.73-7.77L451.73-1.81L458.66-1.81L458.66 0L449.62 0L449.62-16.80L458.54-16.80L458.54-14.98L451.73-14.98L451.73-9.58L457.68-9.58ZM474.15 0L471.16-6.80L468.21-6.80L468.21 0L466.09 0L466.09-16.80L470.79-16.80L470.79-16.80Q473.26-16.80 474.53-15.52L474.53-15.52L474.53-15.52Q475.80-14.23 475.80-11.75L475.80-11.75L475.80-11.75Q475.80-10.19 475.12-9.03L475.12-9.03L475.12-9.03Q474.43-7.87 473.17-7.28L473.17-7.28L476.43-0.14L476.43 0L474.15 0ZM468.21-14.98L468.21-8.61L470.77-8.61L470.77-8.61Q472.10-8.61 472.89-9.46L472.89-9.46L472.89-9.46Q473.68-10.32 473.68-11.75L473.68-11.75L473.68-11.75Q473.68-14.98 470.75-14.98L470.75-14.98L468.21-14.98ZM483.21-1.12L483.21-1.12L483.21-1.12Q483.21-1.67 483.54-2.04L483.54-2.04L483.54-2.04Q483.87-2.41 484.52-2.41L484.52-2.41L484.52-2.41Q485.18-2.41 485.52-2.04L485.52-2.04L485.52-2.04Q485.86-1.67 485.86-1.12L485.86-1.12L485.86-1.12Q485.86-0.59 485.52-0.23L485.52-0.23L485.52-0.23Q485.18 0.13 484.52 0.13L484.52 0.13L484.52 0.13Q483.87 0.13 483.54-0.23L483.54-0.23L483.54-0.23Q483.21-0.59 483.21-1.12Z" fill="#282828"/><path transform="translate(135,54.949758366962115)rotate(0)" d="M16.90 0L11.95 0L11.95-16.80L16.74-16.80L16.74-16.80Q19.04-16.80 20.20-15.69L20.20-15.69L20.20-15.69Q21.36-14.57 21.36-12.33L21.36-12.33L21.36-12.33Q21.36-11.15 20.77-10.25L20.77-10.25L20.77-10.25Q20.18-9.35 19.18-8.85L19.18-8.85L19.18-8.85Q20.33-8.51 21.01-7.43L21.01-7.43L21.01-7.43Q21.68-6.36 21.68-4.85L21.68-4.85L21.68-4.85Q21.68-2.59 20.44-1.29L20.44-1.29L20.44-1.29Q19.20 0 16.90 0L16.90 0ZM17.00-7.86L14.06-7.86L14.06-1.81L16.95-1.81L16.95-1.81Q18.15-1.81 18.85-2.60L18.85-2.60L18.85-2.60Q19.56-3.39 19.56-4.82L19.56-4.82L19.56-4.82Q19.56-7.86 17.00-7.86L17.00-7.86ZM14.06-14.98L14.06-9.64L16.78-9.64L16.78-9.64Q17.87-9.64 18.55-10.38L18.55-10.38L18.55-10.38Q19.22-11.11 19.22-12.34L19.22-12.34L19.22-12.34Q19.22-13.72 18.61-14.35L18.61-14.35L18.61-14.35Q18.00-14.98 16.74-14.98L16.74-14.98L14.06-14.98ZM37.47-16.80L39.59-16.80L39.59-4.86L39.59-4.86Q39.57-2.47 38.21-1.12L38.21-1.12L38.21-1.12Q36.84 0.23 34.41 0.23L34.41 0.23L34.41 0.23Q31.92 0.23 30.60-1.09L30.60-1.09L30.60-1.09Q29.28-2.41 29.26-4.86L29.26-4.86L29.26-16.80L31.36-16.80L31.36-4.94L31.36-4.94Q31.36-3.24 32.08-2.41L32.08-2.41L32.08-2.41Q32.80-1.57 34.41-1.57L34.41-1.57L34.41-1.57Q36.02-1.57 36.75-2.41L36.75-2.41L36.75-2.41Q37.47-3.24 37.47-4.94L37.47-4.94L37.47-16.80ZM51.34 0L47.57 0L47.57-16.80L51.58-16.80L51.58-16.80Q54.52-16.80 56.15-14.96L56.15-14.96L56.15-14.96Q57.78-13.12 57.78-9.79L57.78-9.79L57.78-6.97L57.78-6.97Q57.78-3.64 56.12-1.82L56.12-1.82L56.12-1.82Q54.47 0 51.34 0L51.34 0ZM51.58-14.98L49.68-14.98L49.68-1.81L51.38-1.81L51.38-1.81Q53.61-1.81 54.64-3.09L54.64-3.09L54.64-3.09Q55.66-4.36 55.69-6.87L55.69-6.87L55.69-9.85L55.69-9.85Q55.69-12.50 54.66-13.74L54.66-13.74L54.66-13.74Q53.64-14.98 51.58-14.98L51.58-14.98ZM76.31-8.37L76.31-2.09L75.94-1.63L75.94-1.63Q74.34 0.23 71.27 0.23L71.27 0.23L71.27 0.23Q68.55 0.23 67.00-1.58L67.00-1.58L67.00-1.58Q65.45-3.38 65.41-6.68L65.41-6.68L65.41-9.98L65.41-9.98Q65.41-13.52 66.83-15.28L66.83-15.28L66.83-15.28Q68.24-17.04 71.06-17.04L71.06-17.04L71.06-17.04Q73.46-17.04 74.81-15.70L74.81-15.70L74.81-15.70Q76.17-14.36 76.31-11.88L76.31-11.88L74.19-11.88L74.19-11.88Q74.07-13.45 73.32-14.33L73.32-14.33L73.32-14.33Q72.58-15.21 71.07-15.21L71.07-15.21L71.07-15.21Q69.25-15.21 68.41-14.03L68.41-14.03L68.41-14.03Q67.57-12.85 67.53-10.25L67.53-10.25L67.53-6.82L67.53-6.82Q67.53-4.28 68.50-2.93L68.50-2.93L68.50-2.93Q69.47-1.57 71.29-1.57L71.29-1.57L71.29-1.57Q72.99-1.57 73.88-2.40L73.88-2.40L74.19-2.69L74.19-6.57L71.12-6.57L71.12-8.37L76.31-8.37ZM92.54-9.58L92.54-7.77L86.60-7.77L86.60-1.81L93.52-1.81L93.52 0L84.49 0L84.49-16.80L93.41-16.80L93.41-14.98L86.60-14.98L86.60-9.58L92.54-9.58ZM110.77-16.80L110.77-14.98L106.35-14.98L106.35 0L104.24 0L104.24-14.98L99.83-14.98L99.83-16.80L110.77-16.80ZM128.12-16.80L130.85-16.80L135.23-3.09L139.62-16.80L142.34-16.80L142.34 0L140.23 0L140.23-6.54L140.43-13.10L136.03 0L134.41 0L130.04-13.05L130.23-6.54L130.23 0L128.12 0L128.12-16.80ZM159.87 0L158.54-4.39L152.86-4.39L151.56 0L149.39 0L154.80-16.80L156.61-16.80L162.04 0L159.87 0ZM155.70-13.85L153.42-6.21L158.00-6.21L155.70-13.85ZM176.39-4.25L176.39-4.25L176.39-4.25Q176.39-5.51 175.71-6.17L175.71-6.17L175.71-6.17Q175.03-6.84 173.25-7.48L173.25-7.48L173.25-7.48Q171.47-8.11 170.53-8.81L170.53-8.81L170.53-8.81Q169.59-9.51 169.13-10.40L169.13-10.40L169.13-10.40Q168.66-11.30 168.66-12.45L168.66-12.45L168.66-12.45Q168.66-14.45 169.99-15.74L169.99-15.74L169.99-15.74Q171.32-17.04 173.48-17.04L173.48-17.04L173.48-17.04Q174.96-17.04 176.11-16.37L176.11-16.37L176.11-16.37Q177.27-15.71 177.89-14.53L177.89-14.53L177.89-14.53Q178.52-13.35 178.52-11.95L178.52-11.95L176.39-11.95L176.39-11.95Q176.39-13.50 175.64-14.36L175.64-14.36L175.64-14.36Q174.89-15.21 173.48-15.21L173.48-15.21L173.48-15.21Q172.20-15.21 171.50-14.50L171.50-14.50L171.50-14.50Q170.79-13.78 170.79-12.49L170.79-12.49L170.79-12.49Q170.79-11.43 171.56-10.71L171.56-10.71L171.56-10.71Q172.32-10.00 173.91-9.43L173.91-9.43L173.91-9.43Q176.39-8.61 177.46-7.41L177.46-7.41L177.46-7.41Q178.53-6.21 178.53-4.27L178.53-4.27L178.53-4.27Q178.53-2.23 177.20-1.00L177.20-1.00L177.20-1.00Q175.87 0.23 173.59 0.23L173.59 0.23L173.59 0.23Q172.12 0.23 170.88-0.41L170.88-0.41L170.88-0.41Q169.64-1.05 168.93-2.21L168.93-2.21L168.93-2.21Q168.22-3.37 168.22-4.87L168.22-4.87L170.34-4.87L170.34-4.87Q170.34-3.31 171.21-2.45L171.21-2.45L171.21-2.45Q172.09-1.58 173.59-1.58L173.59-1.58L173.59-1.58Q174.98-1.58 175.69-2.30L175.69-2.30L175.69-2.30Q176.39-3.01 176.39-4.25ZM195.85-16.80L195.85-14.98L191.43-14.98L191.43 0L189.31 0L189.31-14.98L184.90-14.98L184.90-16.80L195.85-16.80ZM211.11-9.58L211.11-7.77L205.17-7.77L205.17-1.81L212.09-1.81L212.09 0L203.05 0L203.05-16.80L211.98-16.80L211.98-14.98L205.17-14.98L205.17-9.58L211.11-9.58ZM227.59 0L224.60-6.80L221.64-6.80L221.64 0L219.52 0L219.52-16.80L224.23-16.80L224.23-16.80Q226.70-16.80 227.97-15.52L227.97-15.52L227.97-15.52Q229.24-14.23 229.24-11.75L229.24-11.75L229.24-11.75Q229.24-10.19 228.55-9.03L228.55-9.03L228.55-9.03Q227.86-7.87 226.61-7.28L226.61-7.28L229.86-0.14L229.86 0L227.59 0ZM221.64-14.98L221.64-8.61L224.21-8.61L224.21-8.61Q225.53-8.61 226.32-9.46L226.32-9.46L226.32-9.46Q227.11-10.32 227.11-11.75L227.11-11.75L227.11-11.75Q227.11-14.98 224.18-14.98L224.18-14.98L221.64-14.98Z" fill="#282828"/></g><g transform="translate(16.406249999999996,39.13052318324569)translate(157.43105916030558,150.7924000390879)rotate(0)translate(-157.43105916030558,-150.7924000390879) scale(1.8981090071292313,1.8981090071292313)" opacity="1"><defs class="defs"><linearGradient id="linearGradient8c2ff44c4314e456f7bcc7675b0b870f" class="linearGradient1" gradientTransform="translate(0.5,0.5) rotate(270) translate(-0.5,-0.5)" x1="50%" y1="0%" x2="50%" y2="100%"><stop id="stop1" offset="0%" class="linearGradientColor1" stop-color="#00a961"/><stop id="stop2" offset="100%" class="linearGradientColor2" stop-color="#a2cc58"/></linearGradient></defs><path fill="url(#linearGradient8c2ff44c4314e456f7bcc7675b0b870f)" d="M29.675,119.259L7.182,96.768c-9.573-9.578-9.578-25.102,0-34.68l17.014-17.013&#10;&#9;c4.425,0.721,10.038,1.677,16.437,2.861c3.976,0.639,8.233,1.66,12.707,2.587c4.489,0.885,9.139,2.091,13.915,3.352&#10;&#9;c4.758,1.277,9.658,2.594,14.471,4.333c4.828,1.66,9.693,3.401,14.347,5.499c1.238,0.502,2.452,1.043,3.649,1.604&#10;&#9;c-1.276,1.208-2.641,2.49-4.092,3.839c-4.234,3.863-9.168,8.213-14.543,12.69c-5.396,4.454-11.258,9.012-17.235,13.441&#10;&#9;c-3.017,2.204-6.034,4.397-8.999,6.561c-3.029,2.131-6.007,4.23-8.892,6.258c-5.915,4.054-11.438,7.837-16.167,11.078&#10;&#9;C29.753,119.206,29.716,119.232,29.675,119.259z M108.246,122.275c0.014-1.899-0.876-3.271-1.08-4.957&#10;&#9;c-0.795-1.356-1.13-2.937-2.184-4.174c-0.714-1.444-2.055-2.562-3.108-3.951c-1.396-1.117-2.614-2.49-4.171-3.504&#10;&#9;c-1.416-1.165-2.984-2.139-4.422-3.161c-2.939-1.805-5.632-3.396-7.607-4.546c-0.878,0.887-1.771,1.765-2.704,2.614&#10;&#9;c-2.94,2.747-6.13,5.316-9.366,7.798c-6.541,4.876-13.597,9.011-20.492,12.195c-3.385,1.708-6.828,3.018-10.089,4.198&#10;&#9;c-1.995,0.767-3.948,1.408-5.848,1.969l0.132,0.131c-4.885,1.549-14.269,3.964-21.677,2.502c3.535,0.768,15.272,3.088,27.06,2.881&#10;&#9;l19.4,19.398c9.574,9.578,25.098,9.578,34.672,0l11.287-11.285c0.023-0.324,0.05-0.647,0.055-0.981&#10;&#9;c0.067-1.82,0.147-3.736,0.38-5.675c0.382-1.948-0.045-3.896,0.127-5.843C108.865,125.867,108.322,124.104,108.246,122.275z&#10;&#9; M122.398,43.897c7.344,0,13.297-5.961,13.297-13.305c0-7.342-5.953-13.296-13.297-13.296c-7.351,0-13.301,5.954-13.301,13.296&#10;&#9;C109.098,37.936,115.048,43.897,122.398,43.897z M30.083,40.182c3.307-0.42,7.016-0.774,11.112-0.961&#10;&#9;c4.178-0.192,8.735-0.311,13.553-0.119c4.816,0.191,9.896,0.646,15.172,1.213c5.225,0.878,10.644,1.787,16.095,3.176&#10;&#9;c2.758,0.551,5.468,1.437,8.181,2.338c2.723,0.879,5.477,1.716,8.118,2.93c5.399,2.067,10.559,4.821,15.575,7.623&#10;&#9;c4.845,3.081,9.865,6.8,12.758,8.691c3.297,2.107,6.617,3.104,9.586,3.042c3.069,0.127,6.146-1.262,9.063-3.082&#10;&#9;c1.056-0.703,2.04-1.472,2.992-2.262c-0.209-0.226-0.397-0.463-0.617-0.683l-16.885-16.883c-3.345,2.843-7.665,4.567-12.388,4.567&#10;&#9;c-10.571,0-19.176-8.604-19.176-19.18c0-4.719,1.725-9.04,4.565-12.384L96.762,7.183c-9.574-9.578-25.094-9.578-34.672,0&#10;&#9;L33.863,35.408c-12.114,2.976-22.719,7.659-22.719,7.659C20.465,41.51,27.003,40.592,30.083,40.182z M165.882,56.846&#10;&#9;c-1.738,5.592-5.655,11.33-8.322,14.816c-0.026-0.079-0.046-0.16-0.073-0.238c-0.362,0.468-0.739,0.937-1.135,1.407&#10;&#9;c-3.105,3.599-7.882,7.135-14.164,8.556c-6.324,1.46-13.093-0.096-18.768-2.73c-3.42-1.596-4.921-2.809-7.543-4.373&#10;&#9;c-2.047-1.286-4.118-2.594-6.209-3.903c-1.203-0.62-2.405-1.251-3.611-1.883c-0.814,1.977-1.791,4.095-2.986,6.305&#10;&#9;c-1.417,2.737-3.096,5.626-5.127,8.499c-2.027,2.866-4.162,5.955-6.776,8.756c-0.556,0.625-1.12,1.254-1.689,1.885&#10;&#9;c1.818-0.292,3.941-0.474,6.351-0.4c4.19,0.096,9.211,1.102,14.358,3.832c2.442,1.62,5.133,3.248,7.168,5.89&#10;&#9;c2.385,2.307,3.702,5.5,5.187,8.517c0.668,3.145,1.86,6.488,1.533,9.498c-0.025,0.967-0.061,1.93-0.116,2.881&#10;&#9;c-0.799,5.719-3.444,23.581-6.564,33.083c0,0,11.136-19.617,11.708-37.908l22.569-22.567c5.667-5.668,7.952-13.412,6.905-20.778&#10;&#9;C162.229,70.223,164.72,61.525,165.882,56.846z" class="color c1"/></g><g transform="translate(354.71262722646304,96.76858131132508)translate(58.45002385497044,56.36252300300703)rotate(0)translate(-58.45002385497044,-56.36252300300703) scale(2.091497105360973,2.091497105360973)" opacity="1"><defs class="defs"/><path fill="#a2cc58" d="M55.483,40.099c-14.694,0.646-25.229-9.881-25.229-9.881l-4.578,14.128c0,0,17.771,11.907,25.029,9.402&#10;&#9;C57.965,51.241,55.483,40.099,55.483,40.099z M40.786,47.027c-1.554,0-2.811-1.261-2.811-2.81c0-1.548,1.257-2.809,2.811-2.809&#10;&#9;c1.552,0,2.809,1.261,2.809,2.809C43.595,45.766,42.338,47.027,40.786,47.027z M15.157,0L1.214,1.445c0,0-5.328,10.694,6.341,31.144&#10;&#9;l12.814-3.465C20.369,29.124,8.512,8.899,15.157,0z M8.221,19.108c-1.551,0-2.809-1.261-2.809-2.809s1.258-2.811,2.809-2.811&#10;&#9;c1.553,0,2.811,1.262,2.811,2.811S9.773,19.108,8.221,19.108z M30.957,24.655c0,0,4.553-3.999,1.006-13.72l-6.945,2.921&#10;&#9;c0,0,2.73,3.839,0.452,8.955L30.957,24.655z M29.731,16.09c0.942,0,1.708,0.767,1.708,1.709s-0.766,1.708-1.708,1.708&#10;&#9;c-0.941,0-1.708-0.766-1.708-1.708S28.79,16.09,29.731,16.09z" class="color c1"/></g></svg>